<?xml version="1.0" encoding="utf-8"?>
<!-- Generator: Adobe Illustrator 23.0.4, SVG Export Plug-In . SVG Version: 6.00 Build 0)  -->
<svg version="1.1" id="bean_xA0_Image_1_" xmlns="http://www.w3.org/2000/svg" xmlns:xlink="http://www.w3.org/1999/xlink" x="0px"
	 y="0px" viewBox="0 0 65.5 73.9" style="enable-background:new 0 0 65.5 73.9;" xml:space="preserve">
<style type="text/css">
	.st0{fill:#FFFFFF;}
</style>
<g>
	<g>
		<path class="st0" d="M80.9,83c-31.9,0-63.7,0-95.6,0c0-30.6,0-61.1,0-91.7c31.9,0,63.7,0,95.6,0C80.9,21.9,80.9,52.5,80.9,83z
			 M33,55.8c-2-1.8-4.8-0.9-7.1-1.6c0.1-0.6,0.1-1.1,0.2-1.4c-0.8,0-1.5,0-2,0c-0.3-1.9-0.5-3.5-0.8-5.2c0.3-0.1,0.7-0.2,1.4-0.4
			c-0.7-0.4-1.2-0.7-1.5-0.9c-0.1-1-0.2-1.9-0.2-3c0.1-0.2,0.3-0.6,0.5-0.9c-0.1-0.6-0.2-1.2-0.3-1.8c1.3,0.1,2.5,0.2,3.6,0.4
			c0.5-0.2,1-0.5,1.7-0.8c-0.1,0.8-0.2,1.3-0.2,1.6c2.3-0.5,4.4-1,6.7-1.5c0,0.4,0.1,0.8,0.1,1.2c4.2-0.4,8.4-0.9,13-1.3
			c1.3,1.7,2.7-1.3,4.5-0.5c0.4,0.3,1,0.9,1.7,1.3c1,0.6,1.1,1.3,0.6,2.2c-0.5,0.9-1.2,1.8-1.7,2.7C53,46.3,53,46.8,53,47.2
			c0.8-0.6,1.2-1.4,1.7-2c1.4-1.5,1.5-3.2,1.3-5.1c-0.2-1.6-0.2-3.3-0.4-5.3c-0.3-0.5-0.9-1.4-1.6-2.3c-0.2,0.2-0.4,0.3-0.6,0.5
			c-2-0.5-4-0.7-6-0.7c-3.5,0-6.9,0.2-10.4,0.1c-0.9,0-2.4,0.1-2.7-1.2c1.1-0.9,2-1.6,2.9-2.3c0-0.1-0.1-0.2-0.1-0.3
			c-0.4,0.1-0.7,0.2-1.1,0.3c-0.1-0.1-0.1-0.3-0.2-0.4c0.6-0.3,1.2-0.6,2-1c0,0.6,0.1,0.9,0.1,1.1c0.5,0.1,1.1,0.1,1.8,0.2
			c0.4-0.5,0.8-1,1.2-1.6c0.4,0.3,0.8,0.6,1.2,0.9c-0.4,0.4-0.7,0.8-1,1.1c0.1,0.1,0.2,0.2,0.3,0.3c0.6-0.3,1.1-0.7,1.9-1.1
			c0.5,0.3,1,0.7,1.3,0.8c0.8-0.1,1.3-0.1,1.9-0.1c0,0.5,0,0.7,0.1,1c0.1,0,0.2,0,0.3,0c0.3-0.8,0.5-1.5,0.9-2.5
			c-0.4-0.4-1-0.8-1.6-1.3c0.4-0.5,0.7-0.9,1.2-1.5c0.1,0.7,0.2,1.2,0.3,1.6c0.1,0,0.2,0,0.2,0c0.1-0.4,0.3-0.9,0.4-1.3
			c1.3-0.3,2.5-0.6,3.8-1c-1-1-2-2-2.9-3c-0.8-0.8-1.5-2-2.4-2.3c-3.3-1.2-6.6-2.7-10-3.1C30,15,23.7,16,17.8,19.4
			c-2.9,1.7-6.2,3-7.9,6.2c-2.9,5.1-3.3,10.5-2,16.1c0.8,3.4,2.2,6.7,5.2,8.9c3.3,2.5,6.8,4.7,11,5.3c2.9,0.4,5.7,0.8,8.6,1.1
			C32.8,56.4,32.9,56.1,33,55.8c0.3,0.4,0.5,0.8,0.9,1.4c0.9-0.2,1.8-0.4,2.7-0.6c0.1-0.8,0.1-1.4,0.2-2.1c-0.2-0.1-0.5-0.1-0.7-0.2
			c-0.1,0.8-0.1,1.4-0.2,2.1C34.7,56.1,33.8,56,33,55.8z M46.2,50.3c1,1,3.2,0.5,4.3-1c-0.5,0.3-1.1,0.6-1.6,0.9
			c-0.4-0.2-0.8-0.3-1.2-0.5C47.3,49.9,46.8,50.1,46.2,50.3z M44.8,52.6c-2.3-0.1-2.6,0.1-2.3,1.6C43.3,53.7,44,53.2,44.8,52.6z"/>
		<path d="M33,55.8c-0.1,0.3-0.1,0.7-0.2,1.3c-2.9-0.4-5.8-0.8-8.6-1.1c-4.3-0.6-7.7-2.8-11-5.3c-3-2.2-4.3-5.5-5.2-8.9
			c-1.3-5.6-0.9-11,2-16.1c1.8-3.1,5-4.5,7.9-6.2C23.7,16,30,15,36.5,15.8c3.4,0.4,6.7,1.9,10,3.1c1,0.4,1.6,1.6,2.4,2.3
			c1,1,1.9,1.9,2.9,3c-1.3,0.3-2.6,0.6-3.8,1c-0.1,0.4-0.3,0.9-0.4,1.3c-0.1,0-0.2,0-0.2,0c-0.1-0.4-0.1-0.8-0.3-1.6
			c-0.5,0.6-0.8,1-1.2,1.5c0.6,0.5,1.2,1,1.6,1.3c-0.3,1-0.6,1.8-0.9,2.5c-0.1,0-0.2,0-0.3,0c0-0.3,0-0.5-0.1-1
			c-0.5,0-1.1,0.1-1.9,0.1c-0.2-0.2-0.8-0.5-1.3-0.8c-0.7,0.4-1.3,0.8-1.9,1.1c-0.1-0.1-0.2-0.2-0.3-0.3c0.3-0.3,0.6-0.7,1-1.1
			c-0.4-0.3-0.8-0.6-1.2-0.9c-0.4,0.6-0.8,1.1-1.2,1.6c-0.7-0.1-1.2-0.2-1.8-0.2c0-0.3,0-0.5-0.1-1.1c-0.8,0.4-1.4,0.7-2,1
			c0.1,0.1,0.1,0.3,0.2,0.4c0.4-0.1,0.7-0.2,1.1-0.3c0,0.1,0.1,0.2,0.1,0.3c-0.9,0.7-1.8,1.5-2.9,2.3c0.3,1.3,1.8,1.2,2.7,1.2
			c3.4,0.1,6.9-0.1,10.4-0.1c2,0,4,0.2,6,0.7c0.2-0.2,0.4-0.4,0.6-0.5c0.6,0.9,1.2,1.8,1.6,2.3c0.1,2,0.2,3.7,0.4,5.3
			c0.2,1.9,0.1,3.6-1.3,5.1c-0.6,0.6-0.9,1.4-1.7,2c0.1-0.4,0.1-0.8,0.2-1.1c0.5-0.9,1.1-1.8,1.7-2.7c0.5-0.9,0.4-1.7-0.6-2.2
			c-0.7-0.4-1.2-0.9-1.7-1.3c-1.8-0.8-3.2,2.2-4.5,0.5c-4.6,0.5-8.8,0.9-13,1.3c0-0.4-0.1-0.8-0.1-1.2c-2.3,0.5-4.5,1-6.7,1.5
			c0-0.3,0.1-0.8,0.2-1.6c-0.7,0.3-1.2,0.5-1.7,0.8c-1.2-0.1-2.3-0.2-3.6-0.4c0.1,0.6,0.2,1.2,0.3,1.8c-0.2,0.3-0.4,0.7-0.5,0.9
			c0.1,1.1,0.2,1.9,0.2,3c0.3,0.2,0.7,0.4,1.5,0.9c-0.7,0.2-1.1,0.3-1.4,0.4c0.3,1.7,0.5,3.3,0.8,5.2c0.5,0,1.2,0,2,0
			c0,0.3-0.1,0.7-0.2,1.4C28.2,54.9,30.9,54,33,55.8C33,55.8,33,55.8,33,55.8z M28.8,34c-0.3,0.5-0.5,1-0.8,1.6c2.4,0,4.5,0,6.5,0
			c0,0,0-0.1,0-0.1c4.1,0,8.2,0,12.3,0c0.1-0.5,0.2-0.8,0.3-1.1c0.5,0.4,0.9,0.7,1.2,0.9c0.6-0.4,1.1-0.7,1.6-1c0-0.1,0-0.2,0-0.4
			c-0.7,0-1.3,0-2,0c0,0.1,0,0.2,0,0.3c-0.3-0.2-0.6-0.5-0.9-0.7c-1,0.2-2,0.3-2.9,0.5c-0.5-0.4-0.9-0.8-1.2-1c-3.3,0-6.3,0-9.4,0
			c-0.5,0-1.1,0.1-1.7,0.1c-1.1,0.1-2.1,0-3.2,0c-2.5,0-5.1,0.1-7.6,0.1c-1.1,0-2.6,1.4-1.9,2.9c0.5-0.6,0.9-1.2,1.6-2
			c0.2,0,0.8-0.1,1.3-0.1c0.6,0.4,1.1,0.7,1.5,1C25.5,34.7,27.2,34.3,28.8,34z M17.5,43.3c-0.1,0.2-0.3,0.5-0.4,0.9
			c-0.2-0.3-0.3-0.5-0.5-0.7c0,1.5,0,2.9,0,4.3c0.5,0.3,0.9,0.5,1.3,0.7c0.5-0.6,0.9-1.2,1.5-2c0.3,0.6,0.5,1,0.6,1.4
			c-0.5-0.5-0.9-1-1.4-1.6c0.7,0.1,1.4,0.1,2.4,0.2c0-0.4-0.1-0.9-0.1-1.5c-0.1,0-0.2,0-0.2,0c-0.1,0.4-0.2,0.8-0.3,1.6
			c-0.6-1.2-1-2-1.3-2.4C18.4,43.8,18,43.6,17.5,43.3z M45.5,20.3c-1.3,0-2.6,0-4,0c0-0.1-0.1-0.3-0.1-0.4c-0.2,0.2-0.4,0.4-0.7,0.6
			c0.6,0.6,1.2,1.1,1.8,1.6C43.5,21.5,44.5,20.9,45.5,20.3z M16.2,33.8c-0.1-0.6-0.1-1.1-0.2-2.1c-0.7,0.8-1.1,1.2-1.8,2
			C15.2,33.7,15.6,33.7,16.2,33.8z M29.3,28.5c0.3-0.3,0.5-0.4,0.5-0.4c0.1-0.8,0.2-1.5,0.4-2.4C28.9,26.5,28.7,27.3,29.3,28.5z
			 M29.1,29.2c-0.1-0.1-0.2-0.1-0.4-0.2c-0.4,0.8-0.8,1.6-1.3,2.4c0.1,0.1,0.3,0.2,0.4,0.3c0.4-0.3,0.9-0.6,1.2-0.8
			C29.1,30.3,29.1,29.8,29.1,29.2z M20.4,50.2c-0.4-0.5-0.7-0.9-1-1.2c-0.6,0.5-1.1,0.9-1.7,1.4c0,0.1,0,0.2,0.1,0.3
			C18.6,50.5,19.4,50.3,20.4,50.2z"/>
		<path d="M33,55.8c0.8,0.2,1.7,0.3,2.8,0.6c0.1-0.7,0.1-1.3,0.2-2.1c0.3,0.1,0.5,0.1,0.7,0.2c-0.1,0.7-0.1,1.3-0.2,2.1
			c-0.8,0.2-1.7,0.4-2.7,0.6C33.5,56.6,33.2,56.2,33,55.8C33,55.8,33,55.8,33,55.8z"/>
		<path d="M46.2,50.3c0.6-0.2,1-0.4,1.5-0.6c0.4,0.2,0.8,0.3,1.2,0.5c0.6-0.3,1.1-0.6,1.6-0.9C49.5,50.8,47.2,51.3,46.2,50.3z"/>
		<path d="M44.8,52.6c-0.8,0.6-1.5,1.1-2.3,1.6C42.2,52.7,42.5,52.5,44.8,52.6z"/>
		<path class="st0" d="M28.8,34c-1.6,0.4-3.3,0.8-5.1,1.2c-0.4-0.3-1-0.6-1.5-1c-0.5,0-1,0.1-1.3,0.1c-0.6,0.8-1.1,1.4-1.6,2
			c-0.7-1.5,0.8-2.9,1.9-2.9c2.5,0.1,5.1,0,7.6-0.1c1.1,0,2.1,0,3.2,0c0.6,0,1.1-0.2,1.7-0.1c3,0,6.1,0,9.4,0c0.2,0.2,0.7,0.6,1.2,1
			c1-0.2,1.9-0.3,2.9-0.5c0.3,0.2,0.6,0.5,0.9,0.7c0-0.1,0-0.2,0-0.3c0.7,0,1.3,0,2,0c0,0.1,0,0.2,0,0.4c-0.5,0.3-1,0.6-1.6,1
			c-0.3-0.2-0.7-0.5-1.2-0.9c-0.1,0.3-0.2,0.6-0.3,1.1c-4.1,0-8.2,0-12.3,0c0,0,0,0.1,0,0.1c-2.1,0-4.1,0-6.5,0
			C28.3,35,28.5,34.5,28.8,34z"/>
		<path class="st0" d="M17.5,43.3c0.5,0.3,0.9,0.5,1.6,0.9c0.2,0.5,0.7,1.3,1.3,2.4c0.2-0.8,0.2-1.2,0.3-1.6c0.1,0,0.2,0,0.2,0
			c0.1,0.6,0.1,1.1,0.1,1.5c-1-0.1-1.7-0.1-2.4-0.2c0.5,0.5,0.9,1,1.4,1.6c-0.2-0.4-0.4-0.8-0.6-1.4c-0.6,0.8-1,1.3-1.5,2
			c-0.4-0.2-0.8-0.4-1.3-0.7c0-1.4,0-2.8,0-4.3c0.1,0.2,0.3,0.4,0.5,0.7C17.2,43.8,17.4,43.5,17.5,43.3z"/>
		<path class="st0" d="M45.5,20.3c-1,0.6-2,1.2-2.9,1.8c-0.6-0.5-1.2-1.1-1.8-1.6c0.3-0.2,0.5-0.4,0.7-0.6c0,0.1,0.1,0.3,0.1,0.4
			C42.9,20.3,44.3,20.3,45.5,20.3z"/>
		<path class="st0" d="M16.2,33.8c-0.6,0-1-0.1-2-0.1c0.7-0.7,1.1-1.2,1.8-2C16.1,32.7,16.1,33.2,16.2,33.8z"/>
		<path class="st0" d="M29.3,28.5c-0.6-1.2-0.4-2,0.9-2.7c-0.1,0.9-0.2,1.5-0.4,2.4C29.8,28.1,29.6,28.3,29.3,28.5z"/>
		<path class="st0" d="M29.1,29.2c0,0.5,0,1,0,1.8c-0.4,0.2-0.8,0.5-1.2,0.8c-0.1-0.1-0.3-0.2-0.4-0.3c0.4-0.8,0.8-1.6,1.3-2.4
			C28.9,29.1,29,29.2,29.1,29.2z"/>
		<path class="st0" d="M20.4,50.2c-1,0.2-1.8,0.3-2.6,0.5c0-0.1,0-0.2-0.1-0.3c0.6-0.4,1.1-0.9,1.7-1.4C19.7,49.3,20,49.6,20.4,50.2
			z"/>
	</g>
</g>
</svg>
